<svg class="ldi-pd5jso" width="200px"  height="200px"  xmlns="http://www.w3.org/2000/svg" xmlns:xlink="http://www.w3.org/1999/xlink" viewBox="0 0 100 100" preserveAspectRatio="xMidYMid" style="background: none;"><!--?xml version="1.0" encoding="utf-8"?--><!--Generator: Adobe Illustrator 21.0.0, SVG Export Plug-In . SVG Version: 6.00 Build 0)--><svg version="1.1" id="圖層_1" xmlns="http://www.w3.org/2000/svg" xmlns:xlink="http://www.w3.org/1999/xlink" x="0px" y="0px" viewBox="0 0 100 100" style="transform-origin: 50px 50px 0px;" xml:space="preserve" class=""><g class="" style="transform-origin: 50px 50px 0px; transform: scale(0.6);"><g class="" style="transform-origin: 50px 50px 0px; animation-duration: 1s; animation-delay: -1s;"><style type="text/css" class="ld ld-breath" style="transform-origin: 50px 50px 0px; animation-duration: 1s; animation-delay: -1s;">.st0{fill:#666666;} .st1{fill:#EBB885;} .st2{fill:#E0E0E0;} .st3{fill:#A0C8D7;} .st4{fill:#66503A;} .st5{fill:#ABBD81;} .st6{fill:#A0C8D7;stroke:#333333;stroke-width:2;stroke-miterlimit:10;} .st7{fill:#FFFFFF;} .st8{fill:#66503A;stroke:#333333;stroke-width:2;stroke-miterlimit:10;} .st9{fill:#E0E0E0;stroke:#333333;stroke-width:2;stroke-miterlimit:10;} .st10{fill:#03AFF3;} .st11{fill:none;stroke:#333333;stroke-width:5;stroke-linecap:round;stroke-miterlimit:10;} .st12{fill:#8C6239;} .st13{fill:#F5E6C8;} .st14{fill:#333333;} .st15{fill:#F47E60;} .st16{fill:#E15B64;} .st17{fill:none;stroke:#000000;stroke-width:6;stroke-miterlimit:10;} .st18{fill:#4A3827;} .st19{fill:none;stroke:#666666;stroke-width:5.8262;stroke-linecap:round;stroke-miterlimit:10;} .st20{fill:#77A4BD;} .st21{fill:#F8B26A;} .st22{fill:#849B87;} .st23{fill:none;} .st24{fill:#FFFFFF;stroke:#000000;stroke-width:4;stroke-miterlimit:10;} .st25{fill:none;stroke:#849B87;stroke-width:4;stroke-miterlimit:10;} .st26{fill:none;stroke:#849B87;stroke-width:4.1718;stroke-miterlimit:10;} .st27{fill:#C33737;} .st28{fill:#FFDC6C;stroke:#FFFFFF;stroke-width:2.4393;stroke-miterlimit:10;} .st29{stroke:#000000;stroke-width:3;stroke-miterlimit:10;} .st30{stroke:#000000;stroke-width:3;stroke-linecap:round;stroke-linejoin:round;stroke-miterlimit:10;} .st31{fill:#E0E0E0;stroke:#000000;stroke-width:3;stroke-miterlimit:10;} .st32{fill:#735441;} .st33{fill:#C8DC96;} .st34{fill:#F5E6C8;stroke:#C33737;stroke-width:6;stroke-miterlimit:10;} .st35{fill:#F5E6C8;stroke:#000000;stroke-width:4.2393;stroke-miterlimit:10;} .st36{fill:#F5E169;} .st37{fill:#FFDC6C;} .st38{fill:none;stroke:#000000;stroke-width:5.1342;stroke-miterlimit:10;} .st39{fill:none;stroke:#000000;stroke-width:4.908;stroke-miterlimit:10;} .st40{fill:none;stroke:#000000;stroke-width:5.0371;stroke-miterlimit:10;} .st41{fill:none;stroke:#000000;stroke-width:5.4333;stroke-miterlimit:10;} .st42{fill:none;stroke:#333333;stroke-width:4.308;stroke-miterlimit:10;} .st43{fill:#F8B26A;stroke:#333333;stroke-width:3;stroke-miterlimit:10;} .st44{fill:#FFFF00;stroke:#333333;stroke-width:3;stroke-miterlimit:10;} .st45{fill:#F8B26A;stroke:#F47E60;stroke-width:2.326;stroke-miterlimit:10;} .st46{fill:#333333;stroke:#333333;stroke-width:3;stroke-miterlimit:10;} .st47{fill:#8A8A8A;} .st48{fill:none;stroke:#333333;stroke-width:3;stroke-linecap:round;stroke-linejoin:round;stroke-miterlimit:10;} .st49{fill:none;stroke:#333333;stroke-width:2;stroke-linecap:round;stroke-linejoin:round;stroke-miterlimit:10;} .st50{fill:#983733;} .st51{fill:#D50D01;} .st52{fill:#81C927;} .st53{fill:#C33737;stroke:#333333;stroke-width:2;stroke-miterlimit:10;} .st54{fill:#F5E6C8;stroke:#333333;stroke-width:2;stroke-miterlimit:10;} .st55{fill:#FFFFFF;stroke:#333333;stroke-width:4;stroke-miterlimit:10;} .st56{fill:none;stroke:#E15B64;stroke-width:3;stroke-miterlimit:10;} .st57{fill:#FFFFFF;stroke:#333333;stroke-width:6;stroke-linecap:round;stroke-miterlimit:10;}</style><g class="" style="transform-origin: 50px 50px 0px;"><g class="ld ld-breath" style="transform-origin: 50px 50px 0px; animation-duration: 1s; animation-delay: -0.967742s;"><path class="st32" d="M63.356,92.5c-4.217-5.301-6.964-11.554-8.457-17.955c-1.554-6.414-1.69-13.028-1.064-19.405 c0.615-6.4,2.259-12.602,4.406-18.496l3.24-8.741c1.064-2.895,2.041-5.814,2.626-8.816l2.176,0.527 c-0.877,3.004-1.654,6.015-2.416,9.026c-0.759,3.008-1.543,5.998-2.172,8.995c-1.295,5.972-2.135,11.952-2.392,17.89 c-0.249,5.941,0.385,11.829,1.931,17.397c1.573,5.559,9.179,16.279,15.062,19.501L63.356,92.5z" fill="rgb(115, 84, 65)" style="fill: rgb(115, 84, 65);"></path></g><g class="ld ld-breath" style="transform-origin: 50px 50px 0px; animation-duration: 1s; animation-delay: -0.935484s;"><path class="st32" d="M55.184,47.038c-0.084-2.151-1.006-4.386-2.31-6.365c-1.311-2.004-2.966-3.773-4.901-5.255 c-1.93-1.504-4.1-2.761-6.289-4.028c-1.093-0.639-2.173-1.302-3.24-1.989c-1.068-0.685-2.109-1.419-3.044-2.349 c1.288,0.281,2.469,0.758,3.624,1.284c1.156,0.524,2.298,1.072,3.428,1.644c2.25,1.158,4.544,2.32,6.713,3.796 c2.179,1.467,4.155,3.326,5.742,5.475c1.585,2.144,2.892,4.667,3.197,7.591L55.184,47.038z" fill="rgb(115, 84, 65)" style="fill: rgb(115, 84, 65);"></path></g><g class="ld ld-breath" style="transform-origin: 50px 50px 0px; animation-duration: 1s; animation-delay: -0.903226s;"><path class="st32" d="M54.263,61.073c-1.155-0.117-2.024-0.443-2.905-0.8c-0.868-0.366-1.688-0.793-2.49-1.319 c-0.401-0.266-0.794-0.549-1.19-0.925c-0.349-0.342-0.658-0.695-0.952-1.061c-0.584-0.732-1.076-1.502-1.519-2.278 c-0.867-1.549-1.63-3.122-2.307-4.767c-0.62-1.643-1.114-3.453-0.676-5.243c0.766,1.637,1.263,3.162,2.002,4.673 c0.69,1.511,1.616,2.945,2.592,4.296c0.965,1.312,2.093,2.572,3.329,3.192c0.671,0.36,1.414,0.668,2.155,0.903 c0.728,0.235,1.526,0.41,2.09,0.404L54.263,61.073z" fill="rgb(115, 84, 65)" style="fill: rgb(115, 84, 65);"></path></g><g class="ld ld-breath" style="transform-origin: 50px 50px 0px; animation-duration: 1s; animation-delay: -0.870968s;"><path class="st32" d="M54.188,64.154c6.26-11.482,18.072-19.02,30.243-20.141c-11.919,2.726-21.788,11.561-25.822,22.197 L54.188,64.154z" fill="rgb(115, 84, 65)" style="fill: rgb(115, 84, 65);"></path></g><g class="ld ld-breath" style="transform-origin: 50px 50px 0px; animation-duration: 1s; animation-delay: -0.83871s;"><path class="st32" d="M58.997,36.648c1.4-0.254,2.763-0.526,4.072-0.926c1.311-0.391,2.549-0.945,3.733-1.663 c2.354-1.44,4.392-3.527,5.785-6.055c-0.947,2.726-2.65,5.249-4.915,7.23c-1.131,0.985-2.418,1.849-3.779,2.521 c-1.356,0.682-2.758,1.217-4.13,1.716L58.997,36.648z" fill="rgb(115, 84, 65)" style="fill: rgb(115, 84, 65);"></path></g><g class="ld ld-breath" style="transform-origin: 50px 50px 0px; animation-duration: 1s; animation-delay: -0.806452s;"><path class="st32" d="M60.886,56.534c2.682-0.449,5.363,0.31,7.301,1.892c1.934,1.587,3.035,3.929,3.102,6.213 c-0.55-2.218-2.068-4.061-3.914-4.996c-1.843-0.94-4.031-0.99-5.742-0.28L60.886,56.534z" fill="rgb(115, 84, 65)" style="fill: rgb(115, 84, 65);"></path></g><g class="ld ld-breath" style="transform-origin: 50px 50px 0px; animation-duration: 1s; animation-delay: -0.774194s;"><path class="st32" d="M44.136,51.4c-2.357,0.08-4.658-0.698-6.424-2.1c-1.765-1.403-2.96-3.404-3.373-5.515 c0.688,2.038,2.103,3.765,3.861,4.815c1.757,1.051,3.858,1.428,5.774,1.101L44.136,51.4z" fill="rgb(115, 84, 65)" style="fill: rgb(115, 84, 65);"></path></g></g><g class="ld ld-breath" style="transform-origin: 50px 50px 0px; animation-duration: 1s; animation-delay: -0.741935s;"><circle class="st22" cx="30.334" cy="23.428" r="7.964" fill="rgb(132, 155, 135)" style="fill: rgb(132, 155, 135);"></circle></g><g class="ld ld-breath" style="transform-origin: 50px 50px 0px; animation-duration: 1s; animation-delay: -0.709677s;"><circle class="st22" cx="22.829" cy="48.391" r="12.773" fill="rgb(132, 155, 135)" style="fill: rgb(132, 155, 135);"></circle></g><g class="ld ld-breath" style="transform-origin: 50px 50px 0px; animation-duration: 1s; animation-delay: -0.677419s;"><circle class="st5" cx="64.953" cy="14.489" r="6.989" fill="rgb(171, 189, 129)" style="fill: rgb(171, 189, 129);"></circle></g><g class="ld ld-breath" style="transform-origin: 50px 50px 0px; animation-duration: 1s; animation-delay: -0.645161s;"><circle class="st21" cx="48.337" cy="31.335" r="4.283" fill="rgb(248, 178, 106)" style="fill: rgb(248, 178, 106);"></circle></g><g class="ld ld-breath" style="transform-origin: 50px 50px 0px; animation-duration: 1s; animation-delay: -0.612903s;"><circle class="st21" cx="68.935" cy="32.01" r="4.957" fill="rgb(248, 178, 106)" style="fill: rgb(248, 178, 106);"></circle></g><g class="ld ld-breath" style="transform-origin: 50px 50px 0px; animation-duration: 1s; animation-delay: -0.580645s;"><circle class="st22" cx="73.356" cy="26.37" r="2.942" fill="rgb(132, 155, 135)" style="fill: rgb(132, 155, 135);"></circle></g><g class="ld ld-breath" style="transform-origin: 50px 50px 0px; animation-duration: 1s; animation-delay: -0.548387s;"><circle class="st5" cx="68.666" cy="46.483" r="5.664" fill="rgb(171, 189, 129)" style="fill: rgb(171, 189, 129);"></circle></g><g class="ld ld-breath" style="transform-origin: 50px 50px 0px; animation-duration: 1s; animation-delay: -0.516129s;"><circle class="st21" cx="84.843" cy="44.781" r="5.1" fill="rgb(248, 178, 106)" style="fill: rgb(248, 178, 106);"></circle></g><g class="ld ld-breath" style="transform-origin: 50px 50px 0px; animation-duration: 1s; animation-delay: -0.483871s;"><circle class="st22" cx="76.889" cy="62.977" r="7.954" fill="rgb(132, 155, 135)" style="fill: rgb(132, 155, 135);"></circle></g><g class="ld ld-breath" style="transform-origin: 50px 50px 0px; animation-duration: 1s; animation-delay: -0.451613s;"><circle class="st22" cx="84.229" cy="53.176" r="2.306" fill="rgb(132, 155, 135)" style="fill: rgb(132, 155, 135);"></circle></g><g class="ld ld-breath" style="transform-origin: 50px 50px 0px; animation-duration: 1s; animation-delay: -0.419355s;"><circle class="st5" cx="41.709" cy="57.94" r="5.037" fill="rgb(171, 189, 129)" style="fill: rgb(171, 189, 129);"></circle></g><g class="ld ld-breath" style="transform-origin: 50px 50px 0px; animation-duration: 1s; animation-delay: -0.387097s;"><circle class="st22" cx="31.026" cy="61.915" r="2.724" fill="rgb(132, 155, 135)" style="fill: rgb(132, 155, 135);"></circle></g><g class="ld ld-breath" style="transform-origin: 50px 50px 0px; animation-duration: 1s; animation-delay: -0.354839s;"><circle class="st15" cx="39.232" cy="43.311" r="3.63" fill="rgb(244, 126, 96)" style="fill: rgb(244, 126, 96);"></circle></g><metadata xmlns:d="https://loading.io/stock/" class="ld ld-breath" style="transform-origin: 50px 50px 0px; animation-duration: 1s; animation-delay: -0.322581s;">
<d:name class="ld ld-breath" style="transform-origin: 50px 50px 0px; animation-duration: 1s; animation-delay: -0.290323s;">entrepreneur</d:name>
<d:tags class="ld ld-breath" style="transform-origin: 50px 50px 0px; animation-duration: 1s; animation-delay: -0.258065s;">grow,fruit,enterprise,responsibilty,sales,entrepreneur,business</d:tags>
<d:license class="ld ld-breath" style="transform-origin: 50px 50px 0px; animation-duration: 1s; animation-delay: -0.225806s;">rf</d:license>
<d:slug class="ld ld-breath" style="transform-origin: 50px 50px 0px; animation-duration: 1s; animation-delay: -0.193548s;">pd5jso</d:slug>
</metadata></g></g><style type="text/css" class="ld ld-breath" style="transform-origin: 50px 50px 0px; animation-duration: 1s; animation-delay: -0.16129s;">path,ellipse,circle,rect,polygon,polyline,line { stroke-width: 0; }@keyframes ld-breath {
  0% {
    -webkit-transform: scale(0.86);
    transform: scale(0.86);
  }
  50% {
    -webkit-transform: scale(1.06);
    transform: scale(1.06);
  }
  100% {
    -webkit-transform: scale(0.86);
    transform: scale(0.86);
  }
}
@-webkit-keyframes ld-breath {
  0% {
    -webkit-transform: scale(0.86);
    transform: scale(0.86);
  }
  50% {
    -webkit-transform: scale(1.06);
    transform: scale(1.06);
  }
  100% {
    -webkit-transform: scale(0.86);
    transform: scale(0.86);
  }
}
.ld.ld-breath {
  -webkit-animation: ld-breath 1s infinite;
  animation: ld-breath 1s infinite;
}
</style></svg></svg>